<?xml version="1.0" standalone="no"?><!DOCTYPE svg PUBLIC "-//W3C//DTD SVG 1.1//EN" "http://www.w3.org/Graphics/SVG/1.1/DTD/svg11.dtd"><svg class="icon" width="32px" height="32.00px" viewBox="0 0 1024 1024" version="1.1" xmlns="http://www.w3.org/2000/svg"><path fill="#8a8a8a" d="M593.1 442.4c62.8-27.7 108.4-87.3 115.8-159.7h-0.1c0.1-0.7 0.2-1.4 0.2-2.2 0-7.2-5.9-13.1-13.1-13.1-7.1 0-12.9 5.7-13.1 12.7-9.3 90.6-87.7 158-180.1 152.4-82.9-5.1-151.6-72-158.8-154.7-8.1-92.9 58.8-173.5 149.3-184.2h0.5c7.2 0 13.1-5.9 13.1-13.1 0-7.2-5.9-13.1-13.1-13.1-1 0-1.9 0.1-2.8 0.3v-0.3c-105.4 12-183.3 106.1-173.1 214.3 6.7 71 52.5 131.5 115 160-160.7 34.9-282.7 174.7-290.5 343.8-0.4 9.4 7.4 17.3 16.9 17.3 9.1 0 16.3-7.3 16.7-16.4 8.6-177.6 155.8-319.5 335.5-319.5s326.9 141.9 335.5 319.5c0.4 9.1 7.6 16.4 16.7 16.4 9.5 0 17.3-7.8 16.9-17.3-7.9-168-128.3-307.1-287.4-343.1z"  /><path fill="#8a8a8a" d="M539.6 77.1m-13.1 0a13.1 13.1 0 1 0 26.2 0 13.1 13.1 0 1 0-26.2 0Z"  /><path fill="#8a8a8a" d="M697.2 234.6m-13.1 0a13.1 13.1 0 1 0 26.2 0 13.1 13.1 0 1 0-26.2 0Z"  /><path fill="#8a8a8a" d="M577.6 91.7c43.1 17.5 77.3 52.2 94.3 95.5 2.5 6.2 9.6 9.3 16 7.3 7.3-2.3 11.1-10.4 8.2-17.6-19.6-49.4-58.7-89-107.9-109.3-7.1-2.9-15.3 0.7-17.7 8-2.1 6.5 0.8 13.6 7.1 16.1z"  /></svg>